<?xml version="1.0" encoding="UTF-8"?>
<!DOCTYPE svg PUBLIC "-//W3C//DTD SVG 1.1//EN" "http://www.w3.org/Graphics/SVG/1.1/DTD/svg11.dtd">
<svg xmlns="http://www.w3.org/2000/svg" version="1.1" width="535px" height="563px" style="shape-rendering:geometricPrecision; text-rendering:geometricPrecision; image-rendering:optimizeQuality; fill-rule:evenodd; clip-rule:evenodd" xmlns:xlink="http://www.w3.org/1999/xlink">
<g><path style="opacity:0.902" fill="#222425" d="M 59.5,-0.5 C 196.5,-0.5 333.5,-0.5 470.5,-0.5C 504.444,8.79528 525.777,30.4619 534.5,64.5C 534.5,208.5 534.5,352.5 534.5,496.5C 527.286,526.404 509.286,546.904 480.5,558C 472.442,559.98 464.442,561.48 456.5,562.5C 328.833,562.5 201.167,562.5 73.5,562.5C 73.0296,561.307 72.0296,560.64 70.5,560.5C 66.8683,559.754 63.2017,559.421 59.5,559.5C 57.4855,558.076 55.1522,557.41 52.5,557.5C 47.311,556.568 42.6443,554.568 38.5,551.5C 38.0269,550.094 37.0269,549.427 35.5,549.5C 28.3266,546.001 22.3266,541.001 17.5,534.5C 17.573,532.973 16.9063,531.973 15.5,531.5C 11.5179,523.938 7.51793,516.271 3.5,508.5C 4.44394,506.863 3.77727,505.863 1.5,505.5C 1.20414,503.597 0.53747,501.93 -0.5,500.5C -0.5,354.167 -0.5,207.833 -0.5,61.5C 8.73287,30.3336 28.7329,9.66694 59.5,-0.5 Z"/></g>
<g><path style="opacity:1" fill="#d4d3d0" d="M 318.5,115.5 C 286.336,116.332 254.003,116.832 221.5,117C 220.211,118.802 218.544,119.969 216.5,120.5C 217.625,118.871 218.959,117.371 220.5,116C 253.165,115.5 285.832,115.333 318.5,115.5 Z"/></g>
<g><path style="opacity:1" fill="#f1efeb" d="M 318.5,115.5 C 333.837,130.335 349.17,145.502 364.5,161C 365.833,161.667 367.167,161.667 368.5,161C 375.5,153.508 382.833,146.341 390.5,139.5C 393.089,138.581 395.089,136.914 396.5,134.5C 398.294,132.203 400.294,130.037 402.5,128C 414.5,127.333 426.5,127.333 438.5,128C 451.5,140.833 464.5,153.667 477.5,166.5C 478.332,177.485 478.832,188.485 479,199.5C 481.038,201.072 483.371,202.072 486,202.5C 486.5,283.833 486.667,365.166 486.5,446.5C 339.833,446.5 193.167,446.5 46.5,446.5C 46.5,364.833 46.5,283.167 46.5,201.5C 52.5,201.5 58.5,201.5 64.5,201.5C 64.3336,193.826 64.5003,186.159 65,178.5C 73.7397,169.257 82.9064,160.59 92.5,152.5C 104.152,151.667 115.819,151.167 127.5,151C 130.109,148.356 133.109,146.189 136.5,144.5C 146.107,152.77 155.44,161.436 164.5,170.5C 182.078,154.259 199.411,137.592 216.5,120.5C 218.544,119.969 220.211,118.802 221.5,117C 254.003,116.832 286.336,116.332 318.5,115.5 Z"/></g>
<g><path style="opacity:0.992" fill="#9d9c9b" d="M 396.5,134.5 C 395.089,136.914 393.089,138.581 390.5,139.5C 391.911,137.086 393.911,135.419 396.5,134.5 Z"/></g>
<g><path style="opacity:0.902" fill="#222425" d="M 228.5,140.5 C 255.502,140.333 282.502,140.5 309.5,141C 337.338,168.506 365.004,196.506 392.5,225C 415.739,225.172 438.906,225.672 462,226.5C 462.5,290.166 462.667,353.832 462.5,417.5C 331.832,417.833 201.165,417.5 70.5,416.5C 69.3372,353.874 69.1706,291.207 70,228.5C 70.6924,227.975 71.1924,227.308 71.5,226.5C 95.4931,225.667 119.493,225.167 143.5,225C 171.863,196.469 200.196,168.302 228.5,140.5 Z"/></g>
<g><path style="opacity:0.984" fill="#a3a3a1" d="M 133.5,175.5 C 124.083,175.195 114.75,175.528 105.5,176.5C 109.783,175.173 114.449,174.507 119.5,174.5C 124.346,174.501 129.012,174.834 133.5,175.5 Z"/></g>
<g><path style="opacity:0.902" fill="#232526" d="M 133.5,175.5 C 133.987,176.473 134.487,177.473 135,178.5C 139.107,181.603 142.94,185.103 146.5,189C 142.5,191.667 139.167,195 136.5,199C 121.167,199.667 105.833,199.667 90.5,199C 89.2686,195.652 89.7686,192.485 92,189.5C 96.3688,184.963 100.869,180.63 105.5,176.5C 114.75,175.528 124.083,175.195 133.5,175.5 Z"/></g>
<g><path style="opacity:0.937" fill="#525453" d="M 453.5,178.5 C 441.407,177.843 429.24,177.51 417,177.5C 404.814,177.501 392.981,178.168 381.5,179.5C 380.596,178.791 380.263,177.791 380.5,176.5C 405.19,175.843 429.523,176.51 453.5,178.5 Z"/></g>
<g><path style="opacity:0.902" fill="#242627" d="M 453.5,178.5 C 453.5,186.167 453.5,193.833 453.5,201.5C 436.487,201.833 419.487,201.499 402.5,200.5C 395.713,193.23 388.713,186.23 381.5,179.5C 392.981,178.168 404.814,177.501 417,177.5C 429.24,177.51 441.407,177.843 453.5,178.5 Z"/></g>
<g><path style="opacity:1" fill="#f1efeb" d="M 254.5,222.5 C 291.876,219.774 321.043,233.774 342,264.5C 359.523,299.117 356.857,332.117 334,363.5C 308.751,391.19 277.917,400.357 241.5,391C 207.432,378.591 187.598,354.425 182,318.5C 179.555,273.288 199.389,242.454 241.5,226C 245.999,224.961 250.332,223.794 254.5,222.5 Z"/></g>
<g><path style="opacity:0.894" fill="#5a5b5c" d="M 1.5,505.5 C 3.77727,505.863 4.44394,506.863 3.5,508.5C 7.51793,516.271 11.5179,523.938 15.5,531.5C 8.77347,524.053 4.1068,515.387 1.5,505.5 Z"/></g>
<g><path style="opacity:0.031" fill="#878889" d="M 15.5,531.5 C 16.9063,531.973 17.573,532.973 17.5,534.5C 16.0937,534.027 15.427,533.027 15.5,531.5 Z"/></g>
<g><path style="opacity:0.267" fill="#888b8a" d="M 35.5,549.5 C 37.0269,549.427 38.0269,550.094 38.5,551.5C 36.9731,551.573 35.9731,550.906 35.5,549.5 Z"/></g>
<g><path style="opacity:0.565" fill="#6d6e6e" d="M 52.5,557.5 C 55.1522,557.41 57.4855,558.076 59.5,559.5C 56.8478,559.59 54.5145,558.924 52.5,557.5 Z"/></g>
<g><path style="opacity:0.569" fill="#646565" d="M 59.5,559.5 C 63.2017,559.421 66.8683,559.754 70.5,560.5C 72.0296,560.64 73.0296,561.307 73.5,562.5C 72.5,562.5 71.5,562.5 70.5,562.5C 66.8091,561.607 63.1424,560.607 59.5,559.5 Z"/></g>
</svg>
