<?xml version="1.0" encoding="UTF-8"?>
<!DOCTYPE svg PUBLIC "-//W3C//DTD SVG 1.1//EN" "http://www.w3.org/Graphics/SVG/1.1/DTD/svg11.dtd">
<svg xmlns="http://www.w3.org/2000/svg" version="1.1" width="535px" height="563px" style="shape-rendering:geometricPrecision; text-rendering:geometricPrecision; image-rendering:optimizeQuality; fill-rule:evenodd; clip-rule:evenodd" xmlns:xlink="http://www.w3.org/1999/xlink">
<g><path style="opacity:0.902" fill="#222425" d="M 59.5,-0.5 C 196.5,-0.5 333.5,-0.5 470.5,-0.5C 504.444,8.79528 525.777,30.4619 534.5,64.5C 534.5,208.5 534.5,352.5 534.5,496.5C 527.286,526.404 509.286,546.904 480.5,558C 472.442,559.98 464.442,561.48 456.5,562.5C 328.833,562.5 201.167,562.5 73.5,562.5C 73.0296,561.307 72.0296,560.64 70.5,560.5C 66.8683,559.754 63.2017,559.421 59.5,559.5C 57.4855,558.076 55.1522,557.41 52.5,557.5C 47.311,556.568 42.6443,554.568 38.5,551.5C 38.0269,550.094 37.0269,549.427 35.5,549.5C 28.3266,546.001 22.3266,541.001 17.5,534.5C 17.573,532.973 16.9063,531.973 15.5,531.5C 11.5179,523.938 7.51793,516.271 3.5,508.5C 4.44394,506.863 3.77727,505.863 1.5,505.5C 1.20414,503.597 0.53747,501.93 -0.5,500.5C -0.5,354.167 -0.5,207.833 -0.5,61.5C 8.73287,30.3336 28.7329,9.66694 59.5,-0.5 Z"/></g>
<g><path style="opacity:1" fill="#f3f1ed" d="M 153.5,133.5 C 164.206,132.853 170.206,137.853 171.5,148.5C 171.031,152.074 169.864,155.408 168,158.5C 163.302,165.701 158.802,173.035 154.5,180.5C 187.347,181.184 220.18,181.851 253,182.5C 296.65,181.834 340.15,181.501 383.5,181.5C 384.5,181.167 385.5,180.833 386.5,180.5C 382.255,171.676 377.755,163.01 373,154.5C 370.362,149.027 371.528,144.527 376.5,141C 379.03,139.578 381.697,139.245 384.5,140C 403.833,154.333 423.167,168.667 442.5,183C 454.627,192.73 455.627,203.396 445.5,215C 425.45,230.718 405.117,246.051 384.5,261C 374.452,261.952 370.286,257.452 372,247.5C 377.139,237.558 381.972,227.558 386.5,217.5C 309.164,217.167 231.83,217.5 154.5,218.5C 159.667,226.833 164.833,235.167 170,243.5C 171.47,259.029 164.637,264.862 149.5,261C 127.381,244.549 105.548,227.716 84,210.5C 77.2229,199.14 79.0563,189.307 89.5,181C 110.723,164.902 132.056,149.069 153.5,133.5 Z"/></g>
<g><path style="opacity:1" fill="#f1efeb" d="M 152.5,300.5 C 166.114,299.615 171.947,305.949 170,319.5C 165.213,328.91 160.047,338.076 154.5,347C 231.192,347.569 307.858,347.902 384.5,348C 385.308,347.692 385.975,347.192 386.5,346.5C 381.059,336.121 376.059,325.621 371.5,315C 372.363,307.803 376.363,304.803 383.5,306C 405.114,321.28 426.448,336.947 447.5,353C 456.186,363.904 454.852,373.571 443.5,382C 424.833,396.667 406.167,411.333 387.5,426C 378.461,430.26 373.127,427.426 371.5,417.5C 374.983,406.867 379.816,396.867 386,387.5C 386.49,386.207 386.657,384.873 386.5,383.5C 309.5,383.5 232.5,383.5 155.5,383.5C 158.64,390.165 162.474,396.499 167,402.5C 173.382,413.336 171.215,421.836 160.5,428C 155.72,429.03 151.387,428.03 147.5,425C 128.167,410.333 108.833,395.667 89.5,381C 78.8557,372.778 77.189,363.112 84.5,352C 106.732,334.074 129.398,316.907 152.5,300.5 Z"/></g>
<g><path style="opacity:0.898" fill="#5a5c5c" d="M 1.5,505.5 C 3.77727,505.863 4.44394,506.863 3.5,508.5C 7.51793,516.271 11.5179,523.938 15.5,531.5C 8.77347,524.053 4.1068,515.387 1.5,505.5 Z"/></g>
<g><path style="opacity:0.031" fill="#878889" d="M 15.5,531.5 C 16.9063,531.973 17.573,532.973 17.5,534.5C 16.0937,534.027 15.427,533.027 15.5,531.5 Z"/></g>
<g><path style="opacity:0.267" fill="#888b8a" d="M 35.5,549.5 C 37.0269,549.427 38.0269,550.094 38.5,551.5C 36.9731,551.573 35.9731,550.906 35.5,549.5 Z"/></g>
<g><path style="opacity:0.565" fill="#6d6e6e" d="M 52.5,557.5 C 55.1522,557.41 57.4855,558.076 59.5,559.5C 56.8478,559.59 54.5145,558.924 52.5,557.5 Z"/></g>
<g><path style="opacity:0.569" fill="#646565" d="M 59.5,559.5 C 63.2017,559.421 66.8683,559.754 70.5,560.5C 72.0296,560.64 73.0296,561.307 73.5,562.5C 72.5,562.5 71.5,562.5 70.5,562.5C 66.8091,561.607 63.1424,560.607 59.5,559.5 Z"/></g>
</svg>
