<?xml version="1.0" standalone="no"?>
<!DOCTYPE svg PUBLIC "-//W3C//DTD SVG 20010904//EN"
 "http://www.w3.org/TR/2001/REC-SVG-20010904/DTD/svg10.dtd">
<svg version="1.0" xmlns="http://www.w3.org/2000/svg"
 width="6021.000000pt" height="6021.000000pt" viewBox="0 0 6021.000000 6021.000000"
 preserveAspectRatio="xMidYMid meet">

<g transform="translate(0.000000,6021.000000) scale(0.100000,-0.100000)"
fill="#000000" stroke="none">
<path d="M28925 59450 c-539 -11 -812 -23 -1195 -55 -6319 -532 -12244 -3034
-16975 -7169 -947 -828 -1890 -1769 -2721 -2716 -2960 -3375 -5118 -7395
-6289 -11720 -199 -733 -417 -1704 -541 -2400 -15 -85 -30 -157 -34 -160 -4
-3 -28 -133 -53 -290 -177 -1080 -308 -2268 -349 -3160 -18 -382 -18 -2868 0
-3250 41 -892 172 -2080 349 -3160 25 -157 49 -287 53 -290 4 -3 19 -75 34
-160 15 -85 57 -301 92 -480 997 -5029 3334 -9759 6738 -13640 831 -947 1774
-1888 2721 -2716 4281 -3742 9565 -6161 15220 -6969 797 -114 1695 -207 2255
-234 648 -32 2691 -38 3445 -11 799 29 2063 166 3135 341 4356 708 8507 2398
12128 4938 1729 1212 3283 2567 4698 4096 3108 3357 5410 7448 6674 11859 247
863 488 1897 651 2791 18 99 36 182 40 185 12 9 116 658 168 1055 77 578 123
1015 195 1860 90 1035 96 1172 96 2160 0 988 -6 1125 -96 2160 -72 845 -118
1282 -195 1860 -52 397 -156 1046 -168 1055 -4 3 -22 86 -40 185 -482 2649
-1335 5231 -2535 7670 -1941 3946 -4734 7399 -8162 10092 -3812 2994 -8226
4982 -12959 5837 -1199 217 -2674 390 -3625 426 -360 14 -2211 20 -2755 10z
m14020 -10440 c435 -5 898 -15 1029 -20 220 -10 250 -14 370 -45 727 -187
1091 -465 2572 -1958 1039 -1047 1294 -1329 1548 -1715 282 -427 386 -651 476
-1017 128 -523 158 -846 180 -1945 5 -256 15 -1900 21 -3655 12 -3176 5 -4783
-21 -5185 -24 -374 -111 -848 -241 -1325 -33 -121 -65 -249 -71 -285 -10 -62
-10 -68 15 -117 32 -62 171 -268 302 -448 268 -366 436 -709 608 -1240 123
-380 156 -633 177 -1360 6 -187 13 -1329 17 -2537 l6 -2198 2679 0 c1473 0
2678 -3 2678 -6 0 -14 -94 -349 -166 -594 -213 -717 -470 -1478 -725 -2142
-131 -343 -174 -445 -429 -1043 -120 -280 -261 -613 -314 -738 -342 -803 -912
-1864 -1693 -3152 -1432 -2358 -3706 -4835 -6208 -6761 -501 -385 -956 -706
-1475 -1037 -172 -110 -1204 -721 -1425 -844 -679 -377 -1932 -1014 -2103
-1069 -129 -41 -313 -116 -632 -259 -1020 -456 -2209 -887 -3295 -1196 -582
-166 -982 -255 -1500 -334 -165 -25 -520 -82 -790 -126 -581 -95 -806 -128
-1175 -174 -463 -57 -1071 -114 -1440 -135 -678 -38 -2945 -38 -3670 0 -771
40 -2239 230 -3605 466 -605 104 -901 178 -1676 418 -977 302 -1902 638 -2634
956 -427 186 -720 310 -995 423 -312 128 -580 254 -935 439 -1282 669 -2781
1571 -3552 2139 -1413 1042 -2909 2408 -4168 3805 -592 657 -1240 1459 -1705
2109 -469 656 -1198 1848 -1667 2725 -431 806 -783 1520 -853 1730 -21 63 -77
205 -125 315 -239 548 -294 678 -385 900 -398 971 -846 2290 -1036 3050 -14
55 -27 108 -30 118 -5 16 171 17 3597 17 l3602 0 -7 643 c-34 3255 -47 5104
-77 10897 -13 2591 -24 11180 -14 11383 l7 158 106 117 c58 64 474 485 924
934 l819 816 72 6 c62 4 3162 20 12737 66 1577 8 6198 26 8400 33 2093 7 7238
5 7895 -3z"/>
<path d="M36775 45553 c-1055 -4 -5059 -24 -7715 -38 -6670 -36 -10386 -54
-12377 -58 -1119 -2 -1132 -2 -1147 -22 -51 -70 -56 -94 -66 -332 -12 -298
-13 -3857 0 -6353 33 -6680 91 -16942 110 -19525 20 -2647 38 -3426 81 -3506
5 -10 27 -23 49 -29 174 -47 1995 -49 9365 -10 1029 6 3209 17 4845 25 11349
57 12501 68 12900 126 41 6 154 29 250 50 585 131 764 205 1205 499 1122 748
1845 1685 2095 2715 44 180 55 254 71 470 17 215 23 4374 10 6010 -17 2068
-32 2292 -187 2767 -231 714 -576 1285 -1146 1899 -440 473 -935 832 -1409
1023 -173 69 -305 107 -554 157 -258 53 -245 50 -245 59 0 12 45 25 225 65
328 72 613 195 915 396 496 331 841 735 1120 1312 313 648 471 1435 501 2492
13 450 6 3716 -10 4550 -21 1088 -33 1345 -76 1651 -100 698 -293 1201 -668
1736 -278 397 -753 905 -1102 1179 -333 262 -705 460 -1112 593 -158 51 -225
62 -487 76 -469 26 -2464 34 -5441 23z m-4115 -6723 c1130 -12 1573 -24 1650
-46 76 -22 211 -93 294 -156 255 -192 459 -515 570 -906 73 -257 71 -224 70
-1137 -2 -1065 -14 -1289 -81 -1484 -87 -257 -244 -475 -450 -628 -231 -171
-581 -290 -928 -313 -351 -24 -2055 -46 -4230 -55 -715 -3 -1599 -8 -1966 -11
l-665 -6 -12 1003 c-20 1641 -32 3403 -24 3564 l7 150 100 8 c319 24 3961 35
5665 17z m655 -11210 c1199 -21 1582 -60 1855 -192 98 -47 113 -59 220 -167
389 -393 504 -739 550 -1650 13 -263 13 -789 0 -962 -66 -864 -330 -1352 -875
-1619 -256 -126 -668 -213 -780 -165 -92 39 -1003 40 -5545 5 -690 -5 -1375
-10 -1522 -10 l-268 0 0 2385 0 2385 2903 0 c1596 0 3154 -5 3462 -10z"/>
</g>
</svg>
