<?xml version="1.0" standalone="no"?>
<!DOCTYPE svg PUBLIC "-//W3C//DTD SVG 20010904//EN"
 "http://www.w3.org/TR/2001/REC-SVG-20010904/DTD/svg10.dtd">
<svg version="1.0" xmlns="http://www.w3.org/2000/svg"
 width="6021.000000pt" height="6021.000000pt" viewBox="0 0 6021.000000 6021.000000"
 preserveAspectRatio="xMidYMid meet">

<g transform="translate(0.000000,6021.000000) scale(0.100000,-0.100000)"
fill="#000000" stroke="none">
<path d="M0 30105 l0 -30105 30105 0 30105 0 0 30105 0 30105 -30105 0 -30105
0 0 -30105z m31680 29335 c805 -30 2064 -167 3130 -341 4356 -708 8507 -2398
12128 -4938 1729 -1212 3283 -2567 4698 -4096 3108 -3357 5410 -7448 6674
-11859 247 -863 488 -1897 651 -2791 18 -99 36 -182 40 -185 12 -9 116 -658
168 -1055 77 -578 123 -1015 195 -1860 90 -1035 96 -1172 96 -2160 0 -988 -6
-1125 -96 -2160 -72 -845 -118 -1282 -195 -1860 -52 -397 -156 -1046 -168
-1055 -4 -3 -22 -86 -40 -185 -482 -2649 -1335 -5231 -2535 -7670 -1941 -3946
-4734 -7399 -8162 -10092 -3812 -2994 -8226 -4982 -12959 -5837 -1205 -218
-2686 -392 -3630 -426 -482 -17 -1892 -23 -2590 -11 -739 13 -940 22 -1355 56
-6316 530 -12244 3034 -16975 7169 -947 828 -1890 1769 -2721 2716 -2960 3375
-5118 7395 -6289 11720 -199 733 -417 1704 -541 2400 -15 85 -30 157 -34 160
-4 3 -28 133 -53 290 -177 1080 -308 2268 -349 3160 -18 382 -18 2868 0 3250
41 892 172 2080 349 3160 25 157 49 287 53 290 4 3 19 75 34 160 15 85 57 301
92 480 997 5029 3334 9759 6738 13640 831 947 1774 1888 2721 2716 1477 1291
3074 2427 4775 3396 3732 2127 7881 3410 12200 3773 383 32 656 44 1195 55
544 10 2395 4 2755 -10z"/>
<path d="M35050 49013 c-2202 -7 -6823 -25 -8400 -33 -9575 -46 -12675 -62
-12737 -66 l-72 -6 -819 -816 c-450 -449 -866 -870 -924 -934 l-106 -117 -7
-158 c-10 -203 1 -8792 14 -11383 30 -5793 43 -7642 77 -10897 l7 -643 -3602
0 c-3426 0 -3602 -1 -3597 -17 3 -10 16 -63 30 -118 190 -760 638 -2079 1036
-3050 91 -222 146 -352 385 -900 48 -110 104 -252 125 -315 104 -313 795
-1662 1253 -2445 856 -1465 1309 -2128 2196 -3215 802 -983 1814 -2043 2849
-2983 850 -774 1822 -1554 2515 -2022 815 -549 2093 -1301 3132 -1843 355
-185 623 -311 935 -439 275 -113 568 -237 995 -423 732 -318 1657 -654 2634
-956 775 -240 1071 -314 1676 -418 1366 -236 2834 -426 3605 -466 725 -38
2992 -38 3670 0 369 21 977 78 1440 135 369 46 594 79 1175 174 270 44 625
101 790 126 518 79 918 168 1500 334 1086 309 2275 740 3295 1196 319 143 503
218 632 259 171 55 1424 692 2103 1069 221 123 1253 734 1425 844 637 407
1228 832 1870 1347 2218 1775 4270 4014 5602 6111 263 414 757 1252 1060 1800
352 634 637 1207 844 1692 53 125 194 458 314 738 255 598 298 700 429 1043
255 664 512 1425 725 2142 72 245 166 580 166 594 0 3 -1205 6 -2678 6 l-2679
0 -6 2198 c-4 1208 -11 2350 -17 2537 -21 727 -54 980 -177 1360 -90 277 -169
478 -268 680 -103 210 -196 363 -340 560 -131 180 -270 386 -302 448 -25 49
-25 55 -15 117 6 36 38 164 71 285 130 477 217 951 241 1325 26 402 33 2009
21 5185 -15 4012 -23 4481 -91 5025 -32 254 -107 599 -181 825 -118 361 -449
888 -824 1310 -409 462 -1832 1892 -2295 2306 -547 490 -890 691 -1406 824
-120 31 -150 35 -370 45 -497 22 -1922 30 -5079 27 -1793 -1 -3523 -3 -3845
-4z m6356 -3463 c623 -10 930 -21 1079 -41 150 -20 470 -136 727 -265 388
-194 681 -416 1058 -800 600 -611 943 -1133 1144 -1739 97 -291 177 -706 205
-1060 33 -408 51 -1605 58 -3705 6 -1938 0 -2404 -37 -2795 -105 -1125 -375
-1906 -886 -2565 -329 -423 -852 -793 -1374 -971 -46 -16 -156 -45 -245 -64
-180 -40 -225 -53 -225 -65 0 -9 -13 -6 245 -59 249 -50 381 -88 554 -157 474
-191 969 -550 1409 -1023 570 -614 915 -1185 1146 -1899 155 -475 170 -699
187 -2767 13 -1636 7 -5795 -10 -6010 -16 -216 -27 -290 -71 -470 -250 -1030
-973 -1967 -2095 -2715 -441 -294 -620 -368 -1205 -499 -96 -21 -209 -44 -250
-50 -399 -58 -1551 -69 -12900 -126 -1636 -8 -3816 -19 -4845 -25 -7370 -39
-9191 -37 -9365 10 -22 6 -44 19 -49 29 -43 80 -61 859 -81 3506 -19 2583 -77
12845 -110 19525 -13 2496 -12 6055 0 6353 10 238 15 262 66 332 15 20 28 20
1147 22 1991 4 5707 22 12377 58 7967 43 11211 52 12346 35z"/>
<path d="M27665 38828 c-313 -4 -615 -11 -670 -15 l-100 -8 -7 -150 c-8 -161
4 -1923 24 -3564 l12 -1003 665 6 c367 3 1251 8 1966 11 2175 9 3879 31 4230
55 347 23 697 142 928 313 206 153 363 371 450 628 67 195 79 419 81 1484 1
913 3 880 -70 1137 -134 472 -394 831 -724 1002 -137 71 -155 74 -530 86 -887
27 -4829 39 -6255 18z"/>
<path d="M26950 25245 l0 -2385 268 0 c147 0 832 5 1522 10 4542 35 5453 34
5545 -5 112 -48 524 39 780 165 545 267 809 755 875 1619 5 74 10 275 10 447
0 805 -66 1340 -204 1662 -77 179 -181 326 -356 503 -107 108 -122 120 -220
167 -162 78 -344 117 -685 147 -540 46 -1243 55 -4632 55 l-2903 0 0 -2385z"/>
</g>
</svg>
